<svg width="41" height="43" fill="none" xmlns="http://www.w3.org/2000/svg"><path d="M6.34547 41.7946a.11782.11782 0 01.04349.0095.11301.11301 0 01.03625.0248l.20577.2157c-.15972.1745-.35713.3142-.57873.4093-.2595.1038-.53917.1539-.82051.147-.26438.0052-.52704-.0415-.77164-.1372-.22065-.0879-.41889-.22-.58131-.3873-.16576-.1735-.29344-.3768-.37553-.598-.0899-.2466-.13428-.5061-.13118-.7671-.00365-.2627.04433-.5238.14147-.7696.08985-.2226.22539-.4259.39868-.5981.17564-.1687.38574-.3013.61731-.3897.25334-.0935.52311-.1401.79479-.1372.25237-.0059.5034.0367.73821.125.20371.0842.39076.2011.55301.3456l-.17234.2304a.17281.17281 0 01-.04372.0416.1093.1093 0 01-.06945.0172.15706.15706 0 01-.07459-.0245l-.0926-.0613-.12861-.0784a1.40013 1.40013 0 00-.17233-.076 1.67642 1.67642 0 00-.23406-.0613 1.64282 1.64282 0 00-.30609-.0245c-.19564-.0023-.38979.0327-.57101.1029-.16901.0651-.32157.1637-.44755.2893-.12826.1335-.2271.2902-.29066.4607-.07244.1951-.10814.4009-.10545.6079-.00309.2101.0326.4192.10545.6176.06277.1691.15977.3248.28551.4583.11781.1245.26383.2217.42698.2843.16789.0664.34811.0997.52986.0981.10498.0015.20992-.005.3138-.0196.16961-.0198.33231-.0759.47584-.1642.072-.0453.13996-.0961.2032-.152.02644-.024.06122-.038.09774-.0392zM12.2871 40.7108c.0032.2601-.0439.5184-.1389.7622-.0838.2211-.2159.4228-.3874.5918-.1716.169-.3788.3014-.608.3885-.5036.183-1.0603.183-1.56384 0-.22771-.0885-.43357-.2212-.60444-.3897-.17147-.172-.30448-.3754-.39096-.5979-.18529-.4937-.18529-1.0332 0-1.5269.08774-.2226.22058-.4266.39096-.6004.17233-.1632.37808-.2908.60444-.3749.50294-.1863 1.06094-.1863 1.56384 0 .2285.0884.4352.2211.607.3896.1694.1704.3014.3712.3884.5906.0953.2455.1424.5055.1389.7671zm-.5401 0a1.7586 1.7586 0 00-.0978-.6127c-.0576-.1691-.1513-.3252-.2752-.4582-.1206-.126-.2691-.2247-.4347-.2892-.3659-.134-.7709-.134-1.13685 0-.16561.0645-.31409.1632-.43469.2892-.12561.1323-.22029.2885-.27779.4582-.13087.399-.13087.8265 0 1.2254.05806.1696.15268.3257.27779.4583.12075.1252.26924.2231.43469.2867.36655.1306.77035.1306 1.13685 0 .1655-.0636.314-.1615.4347-.2867.1234-.1334.217-.2893.2752-.4583.0691-.1974.1021-.4046.0978-.6127zM16.3408 41.3532l.054.1372c.0206-.049.0386-.0931.0592-.1372.0196-.0461.0419-.0911.0669-.1348l1.3143-2.2764c.0258-.0392.0489-.0637.0746-.0711a.32325.32325 0 01.1081-.0122h.3883v3.7026h-.4604v-2.7225-.1151a1.1298 1.1298 0 010-.1275l-1.322 2.3084c-.0168.0345-.0437.0638-.0774.0842a.21581.21581 0 01-.113.0309h-.0746c-.04.0006-.0794-.01-.1132-.0305-.0338-.0205-.0606-.0499-.0771-.0846l-1.3607-2.3231v2.9724h-.4449v-3.6952h.3883a.32325.32325 0 01.1081.0122c.0319.0151.0573.0402.072.0711l1.3427 2.2789a.8123.8123 0 01.0668.1323zM21.2871 41.1692v1.387h-.5145v-3.6977h1.1472c.2166-.0039.4325.0233.6405.0809.1665.0449.3209.1235.4527.2303.1142.1002.2023.2243.2572.3627.0607.1508.0904.3114.0874.4729.0023.1622-.0301.3231-.0951.4729-.0619.1419-.1569.2684-.2778.37-.132.1113-.2871.1948-.4553.2451a1.99455 1.99455 0 01-.6199.0857l-.6224-.0098zm0-.3969h.6224a1.3233 1.3233 0 00.3987-.0564c.1063-.0341.2043-.0882.2881-.1593.0773-.0678.1371-.1516.1749-.245.0421-.0988.0631-.2046.0617-.3112a.67735.67735 0 00-.0516-.3012c-.04-.0957-.1013-.1818-.1799-.2526-.1965-.1462-.4433-.217-.6919-.1985h-.6224v1.5242zM28.201 42.5612h-.4064c-.0408.0014-.0808-.0107-.1132-.0344a.22605.22605 0 01-.0669-.0857l-.3498-.8945H25.508l-.3627.8945c-.0133.0327-.0355.0614-.0643.0833-.0327.0251-.0738.0381-.1158.0368h-.4064l1.5433-3.703h.535l1.5639 3.703zm-2.5464-1.3749h1.4507l-.6122-1.5072a2.60009 2.60009 0 01-.1158-.348l-.0591.1936c-.018.0589-.0386.1128-.0566.1569l-.607 1.5047zM30.4233 38.8754c.0308.0161.0572.0387.0772.0662l2.2506 2.7913v-.1299V38.8582h.4604v3.703h-.2572a.23024.23024 0 01-.1054-.0221.2829.2829 0 01-.0823-.0686l-2.2481-2.7888c.0025.0424.0025.0849 0 .1274v2.7521h-.4604v-3.703h.2727a.22477.22477 0 01.0925.0172zM37.0029 41.0884v1.4704h-.5145v-1.4704l-1.4224-2.23h.4605c.0396-.0023.0788.009.1106.0318.028.0238.0515.052.0694.0833l.89 1.4386c.036.0612.0669.1176.0926.1715.0257.0539.0463.1054.0643.1569l.0669-.1593a1.3006 1.3006 0 01.0874-.1691l.8771-1.4484a.37867.37867 0 01.0669-.0784c.0305-.0254.0701-.0386.1106-.0367h.4656l-1.425 2.2398zM16.0862 32.6443c.2238.0269.4501.049.679.0686 3.4706-1.4792 6.4066-3.9002 8.441-6.9603 2.0344-3.0602 3.077-6.6237 2.9974-10.2453l-3.8248-3.644c.7777 3.8558.4139 7.8417-1.0506 11.5118-1.4646 3.6701-3.9721 6.8795-7.242 9.2692z" fill="#AFB1B8"/><path d="M14.7204 32.4748l.1029.0196c3.4942-2.3812 6.1583-5.7064 7.6476-9.5456 1.4894-3.8391 1.7356-8.0157.7067-11.9896l-5.4478-5.19016c2.2035 4.26626 3.0904 9.04076 2.5577 13.76836-.5328 4.7276-2.4633 9.214-5.5671 12.9374zM33.1961 19.7861c-.9255 3.9793-3.1734 7.568-6.4098 10.2335-.9452.7827-1.9647 1.48-3.0454 2.0829 2.6354-.7379 5.0576-2.0427 7.08-3.8135 2.0224-1.7709 3.591-3.9606 4.5847-6.4003l-2.2095-2.1026z" fill="#AFB1B8"/><path d="M32.3293 19.2002l-3.1458-2.9971c-.0601 3.417-1.0797 6.7563-2.9528 9.6708-1.8731 2.9146-4.5313 5.2979-7.6984 6.9025h.0154a18.76252 18.76252 0 002.1118-.1201c2.9598-1.151 5.5744-2.9821 7.6107-5.3301 2.0363-2.348 3.4308-5.1397 4.0591-8.126zM15.1757 3.5803L11.4229 0C8.06808 1.23513 5.18278 3.40643 3.14464 6.22973 1.1065 9.05304.01047 12.3968 0 15.8234c.01257 3.7863 1.3502 7.4604 3.80116 10.4409 2.45097 2.9805 5.87526 5.0971 9.73094 6.0148 3.4419-3.9953 5.4571-8.9321 5.7526-14.0931.2956-5.161-1.1438-10.27738-4.109-14.6057zM41 18.649c-.0136-4.4922-1.8927-8.79677-5.2268-11.97326-3.3341-3.1765-7.8522-4.96676-12.5673-4.97969-2.1788-.00215-4.3391.38091-6.3712 1.12971l22.977 21.89084c.7867-1.9351 1.1897-3.9925 1.1883-6.0676z" fill="#AFB1B8"/></svg>