<svg width="59" height="47" fill="none" xmlns="http://www.w3.org/2000/svg"><path d="M4.48764 39.2778c.22988.2856.35234.6434.34592 1.0106a1.60418 1.60418 0 01-.12314.6996 1.59864 1.59864 0 01-.41288.577c-.44659.3387-.99985.5042-1.55821.4663H0v-6.405h2.68323c.52966-.0354 1.0551.115 1.48654.4255.17328.1456.31049.3297.40081.5377.09032.2079.13127.4341.11963.6607.01574.3533-.09478.7007-.31164.9794-.2082.2545-.49592.4309-.81651.5006.36342.0666.69146.2607.92558.5476zm-3.21303-.9669h1.14685a1.08418 1.08418 0 00.72924-.2127.761.761 0 00.19579-.2841.76292.76292 0 00.0504-.3417.78807.78807 0 00-.05154-.3403.78585.78585 0 00-.19154-.2855c-.216-.161-.48291-.2378-.75105-.2159H1.27461v1.6802zm1.98828 2.4563a.79556.79556 0 00.21143-.2936.79767.79767 0 00.0597-.3573.80984.80984 0 00-.06244-.3609.80617.80617 0 00-.21492-.2961 1.1804 1.1804 0 00-.77911-.2316H1.27461v1.7616h1.21852a1.2056 1.2056 0 00.76976-.2221zM9.97254 42.0313l-1.49276-2.5032h-.56096v2.5032H6.63486v-6.405h2.4308c.61272-.0429 1.21844.152 1.69224.5445.3398.3476.5447.8056.5779 1.2916.0331.4859-.1077.9677-.3972 1.3586-.2999.3449-.7095.5749-1.15928.6508l1.58938 2.5595H9.97254zm-2.05372-3.3761h1.05023c.72924 0 1.09385-.3234 1.09385-.97a.95557.95557 0 00-.0587-.3881.95475.95475 0 00-.2093-.3316 1.13484 1.13484 0 00-.82585-.2597H7.90636l.01246 1.9494zM16.9907 40.742h-2.5586l-.4518 1.2891H12.634l2.3498-6.333h1.4553l2.3404 6.333h-1.3462l-.4426-1.2891zm-.3428-.97l-.9349-2.7034-.9349 2.7034h1.8698zM25.7759 42.0312h-1.2746l-2.8578-4.3555v4.3555H20.372v-6.405h1.2715l2.8578 4.3806v-4.3806h1.2746v6.405zM33.0496 40.4981c-.2635.4836-.6651.8769-1.1531 1.1295a3.7429 3.7429 0 01-1.7919.4037h-2.2688v-6.405h2.2688a3.81575 3.81575 0 011.7919.3943c.4879.2468.8899.6363 1.1531 1.117.2623.5209.399 1.0965.399 1.6802 0 .5838-.1367 1.1594-.399 1.6803zm-1.4585-.1533c.3638-.4255.5638-.9678.5638-1.5285 0-.5608-.2-1.103-.5638-1.5285-.4397-.3854-1.0131-.5811-1.5956-.5445h-.8851v4.1459h.8851c.5825.0366 1.1559-.159 1.5956-.5444zM17.7885 0S34.24 6.236 33.891 15.2599v15.263s-16.4391-6.2391-16.0963-15.263L17.7885 0zM48.5475 26.9496c3.107-2.1468 6.7009-3.4765 10.4525-3.8674v-4.7779c-4.3227 1.6727-7.9897 4.7058-10.4525 8.6453z" fill="#AFB1B8"/><path d="M46.6808 28.389C49.2239 23.2478 53.6325 19.2805 59 17.3032V3.53577S35.5708 12.4189 36.0663 25.2695V47s1.044-.3973 2.6863-1.142c0-.6947 0-1.3955.0748-2.0996.4849-5.9658 3.3097-11.4941 7.8534-15.3694z" fill="#AFB1B8"/><path d="M44.4526 36.4617a22.4931 22.4931 0 01.8196-4.4494c-2.8292 3.3466-4.5425 7.4994-4.899 11.8744-.0343.413-.053.826-.0623 1.2516 1.3307-.6415 2.8795-1.4425 4.5063-2.3843a22.57345 22.57345 0 01-.3646-6.2923zM45.3844 36.54a21.58083 21.58083 0 00.2898 5.6978c6.4011-3.8455 13.5938-9.7874 13.3165-16.9683v-.6258c-4.5734.5138-8.8522 2.5211-12.179 5.7134a21.49225 21.49225 0 00-1.4273 6.1829z" fill="#AFB1B8"/></svg>