<svg width="89" height="46" fill="none" xmlns="http://www.w3.org/2000/svg"><path d="M44.7405 21.3533c-.4179-.6101-.6179-1.3313-.5704-2.0571v-2.9827c0-.9143.1891-1.6091.5672-2.0844.3782-.4754 1.0278-.7121 1.9487-.71.8653 0 1.4796.2022 1.8428.6068.3962.5162.589 1.1474.5448 1.7841v.7009h-1.548v-.71a3.9613 3.9613 0 00-.0448-.6948c-.0223-.1573-.1002-.3028-.2212-.4127-.1589-.1184-.3592-.1759-.5608-.1608-.2121-.015-.4224.0456-.5897.1699-.1349.1218-.2247.2813-.2564.4551a3.777 3.777 0 00-.0609.7374v3.6197c-.0244.3493.0439.6987.1987 1.0165.077.1075.1839.1928.3089.2463.125.0536.2632.0733.3994.0571.1983.0155.3951-.0434.548-.1638.1262-.1185.2073-.2732.2308-.44.0361-.2401.0522-.4826.048-.7252v-.7342h1.548v.6705c.0435.6637-.1446 1.3225-.5352 1.8752-.3557.4429-.9615.6644-1.8524.6644-.891 0-1.5641-.2366-1.9455-.7282zM51.1857 21.3837c-.391-.4643-.5865-1.1409-.5865-2.036v-3.1373c0-.886.1955-1.5566.5865-2.0117.391-.4551 1.0448-.6817 1.9614-.6796.9102 0 1.5608.2265 1.9518.6796.391.4551.5897 1.1257.5897 2.0117v3.1373c0 .886-.1987 1.5657-.5961 2.0329-.3974.4673-1.0448.7009-1.9454.7009-.9005 0-1.5672-.2366-1.9614-.6978zm2.6825-.7525c.1401-.2908.2038-.6093.1859-.9285v-3.8412c.018-.313-.0447-.6254-.1827-.9103-.0785-.1098-.1881-.1965-.3161-.2501-.1281-.0537-.2695-.0721-.4082-.0533-.139-.0184-.2807.0003-.4092.0539s-.2387.14-.3183.2495c-.1409.2841-.2048.5969-.1859.9103v3.8594c-.0194.3193.0444.6382.1859.9285.0903.0979.2016.1763.3265.2301.125.0537.2606.0815.3978.0815.1373 0 .2729-.0278.3978-.0815.1249-.0538.2363-.1322.3265-.2301v-.0182zM57.5505 13.6106h1.6666l1.2531 5.7886 1.282-5.7886h1.6217l.1635 8.3552h-1.1987l-.1282-5.8068-1.2371 5.8068h-.9615l-1.282-5.828-.1185 5.828h-1.2115l.1506-8.3552zM65.4059 13.6106h2.5959c1.4956 0 2.2434.7908 2.2434 2.3725 0 1.5149-.7873 2.2713-2.362 2.2693h-.8845v3.7134h-1.6025l.0097-8.3552zm2.2177 3.5708c.1584.0191.3192.0053.4713-.0403.1522-.0455.2921-.1218.4101-.2236.1837-.2822.2648-.6136.2307-.9435a2.8545 2.8545 0 00-.0769-.7585c-.0228-.0831-.0629-.161-.118-.2292-.055-.0683-.1238-.1255-.2025-.1682-.2224-.101-.4683-.147-.7147-.1335h-.6217v2.4968h.6217zM72.5561 13.6106h1.721l1.7659 8.3552h-1.4935l-.3493-1.9265H72.665l-.3589 1.9265h-1.5159l1.7659-8.3552zm1.471 5.4609l-.5993-3.5071-.5993 3.5071h1.1986zM77.4691 13.6106h1.1218l2.1473 4.7662v-4.7662h1.33v8.3552H81.001l-2.1601-4.9755v4.9755h-1.375l.0032-8.3552zM85.1834 18.7801l-1.7851-5.1578h1.5031l1.0897 3.3131 1.0223-3.3131h1.4711l-1.7627 5.1578v3.1857h-1.5384v-3.1857zM47.2148 25.6189v.4369h-1.3076v3.3951h-.548v-3.3951h-1.314v-.4369h3.1696zM51.3138 29.4512h-.423c-.043.0025-.0854-.0105-.1186-.0364-.032-.0223-.0565-.0528-.0705-.088l-.3782-.9102h-1.814l-.3782.9102c-.0107.0381-.0305.0733-.0577.1032-.0335.0254-.0757.0383-.1186.0364h-.423l1.6025-3.8319h.5576l1.6217 3.8167zm-2.6537-1.4229h1.5128l-.641-1.5595a2.96366 2.96366 0 01-.1186-.361c-.0224.0728-.0417.1426-.0609.2033l-.0577.1608-.6346 1.5564zM54.0765 29.0748c.1004.005.2009.005.3013 0 .0866-.0084.1724-.0236.2564-.0455.0785-.0182.1556-.0415.2307-.0698.0705-.0273.141-.0607.2148-.094v-.8618h-.641a.12064.12064 0 01-.0466-.0066.11725.11725 0 01-.04-.0237.08908.08908 0 01-.0244-.0315.08447.08447 0 01-.0076-.0383v-.2943h1.2435v1.4686a2.35464 2.35464 0 01-.3205.182 2.22284 2.22284 0 01-.3557.1305 2.65345 2.65345 0 01-.4007.0789 4.4554 4.4554 0 01-.4679.0243c-.2764.0022-.5506-.0463-.8076-.1426-.24-.0914-.458-.2276-.641-.4006-.1784-.1747-.3189-.3809-.4134-.6068-.1011-.254-.1511-.5237-.1475-.795-.0033-.2731.0455-.5445.1443-.8011.0921-.2271.2329-.4337.4134-.6069.1829-.1724.401-.3076.641-.3975.2744-.0977.5657-.1461.8589-.1426.1492-.0002.2982.011.4455.0334.1302.0201.258.0526.3814.0971.1121.0399.2195.0907.3205.1517.0982.0599.1914.1268.2788.2003l-.1538.2367c-.0121.0216-.03.0397-.052.0525-.022.0129-.0472.0198-.073.0203a.1963.1963 0 01-.0994-.0304c-.0481-.0242-.0993-.0546-.157-.091-.0682-.0404-.14-.075-.2148-.1032a1.86894 1.86894 0 00-.2948-.0849 2.25613 2.25613 0 00-.407-.0334c-.2115-.0022-.4214.0338-.6186.1062-.1783.0677-.3391.1713-.4711.3034-.1328.1378-.2343.3-.2981.4764-.1432.4151-.1432.8625 0 1.2775.0702.1802.1793.3445.3205.4824.1315.1315.291.2349.4679.3035.2038.0662.4198.092.6346.0758zM59.1851 29.014h1.75v.4369h-2.2852v-3.832h.5481l-.0129 3.3951zM62.7555 29.4509h-.5481v-3.832h.5481v3.832zM64.7938 25.6371a.2694.2694 0 01.0833.0698l2.3428 2.8886a.97163.97163 0 010-.1365v-2.8552h.4775v3.8474h-.2756a.23978.23978 0 01-.1186-.0212.31382.31382 0 01-.0865-.0729l-2.3396-2.8855v2.9796h-.4583v-3.8323h.2853a.23302.23302 0 01.0897.0182zM71.7324 25.6189v.4217h-1.9421v1.2653h1.5736v.4065h-1.5736v1.3078h1.9421v.4217h-2.5062v-3.823h2.5062zM14.3035 1.95391l24.335 6.54136V31.4173l-24.335-6.5383V1.95391zM12.7427 0v25.9925l27.4534 7.3818V7.38482L12.7427 0z" fill="#AFB1B8"/><path d="M27.4565 45.4402L0 38.0522V12.0625l27.4565 7.3849v25.9928z" fill="#AFB1B8"/><path d="M13.1978 1.65958l24.0177 6.45933-10.2141 9.67229-24.02083-6.4624L13.1978 1.65958zM12.7427 0L0 12.0631l27.4565 7.3847L40.196 7.38469 12.7427 0zM29.0013 43.978L40.196 33.3774l-11.1947-3.0127V43.978z" fill="#AFB1B8"/></svg>