<svg width="40" height="52" fill="none" xmlns="http://www.w3.org/2000/svg"><path d="M16.977 2.93452h.1366c.253 0 .5262.02543.7969.04832a22.62628 22.62628 0 013.5416.53401V.65353A21.09049 21.09049 0 0017.7966.0712C17.3286.0356 16.8303.01271 16.3193 0h-.4276a29.79212 29.79212 0 00-7.33616.94596C5.8253 1.62687 3.20466 2.69275.77158 4.1119V32.5086c2.34272-1.2729 4.83555-2.2443 7.41968-2.8913a32.36052 32.36052 0 016.22814-.9561h.0835c.3517-.0178.7033-.028 1.065-.0306v-2.909a34.32856 34.32856 0 00-8.09508 1.0756c-.97901.2543-1.92512.5289-2.81306.8341l-1.01189.3433V5.83344l.43259-.20852C7.38168 4.05951 10.9522 3.14863 14.5965 2.94215a.62671.62671 0 01.0911 0c.4022-.02034.807-.03052 1.2041-.03052H16.3471c.21.00509.4199.01018.6299.02289z" fill="#AFB1B8"/><path d="M24.1108 5.93259c-.6653 0-1.323-.02289-1.958-.07121-.7589-.05594-1.5381-.14748-2.2767-.27209-.4503-.07628-.893-.16783-1.3231-.267V33.3935a22.4048 22.4048 0 005.5654.6561 29.9427 29.9427 0 007.3362-.9435c2.7307-.6818 5.3521-1.7476 7.7865-3.1659V2.04956c-2.3425 1.27222-4.8342 2.2444-7.4172 2.89383a31.46662 31.46662 0 01-7.7131.9892zm11.2244.48569l1.0119-.34075V28.2263l-.4326.2085a27.76119 27.76119 0 01-5.1733 1.8589c-2.163.5596-4.3867.8475-6.6203.8569-.6678 0-1.3306-.0279-1.9732-.0839l-.6931-.061V8.22883l.807.05341c.5869.03814 1.194.05594 1.8543.05594a34.26261 34.26261 0 008.4062-1.0782c.9436-.2492 1.8822-.52892 2.8131-.8417zM2.73716 42.2124a1.49165 1.49165 0 00-.51477-.3478 1.48576 1.48576 0 00-.61095-.1074 1.67256 1.67256 0 00-.65014.1221 1.501 1.501 0 00-.50595.3331 1.46267 1.46267 0 00-.32633.5086 1.65032 1.65032 0 00-.11637.6281v3.794a1.7881 1.7881 0 00.14925.7781 1.5258 1.5258 0 00.37946.5086 1.3291 1.3291 0 00.52113.2696c.18448.0518.3751.0783.56665.0788.2113.0021.42042-.0431.6122-.1322a1.59872 1.59872 0 00.50594-.351 1.64787 1.64787 0 00.3314-.5086 1.5323 1.5323 0 00.12142-.6052v-.4246h-.99165v.3382a.88126.88126 0 01-.05818.3382.60847.60847 0 01-.1442.2136.6054.6054 0 01-.20743.1093.69726.69726 0 01-.20744.0356.50288.50288 0 01-.25995-.0388.50622.50622 0 01-.20552-.1646.89869.89869 0 01-.13155-.5086v-3.5372a1.20784 1.20784 0 01.12143-.567.50693.50693 0 01.2102-.1845.50288.50288 0 01.27551-.0444.52702.52702 0 01.24752.052.52974.52974 0 01.19518.1616.80647.80647 0 01.16443.5086v.328h.98153v-.3865a1.78812 1.78812 0 00-.12142-.6637 1.5619 1.5619 0 00-.3314-.534zM8.62889 42.1691c-.31621-.267-.7153-.4145-1.12826-.417a1.73395 1.73395 0 00-.59196.1068 1.60692 1.60692 0 00-.52365.3102 1.55895 1.55895 0 00-.38452.5315 1.77016 1.77016 0 00-.14419.7349v3.6389c-.00684.256.04239.5103.14419.7451.08975.1956.22099.3692.38452.5085a1.5504 1.5504 0 00.52365.3205c.18968.0698.38998.1059.59196.1068a1.71423 1.71423 0 00.59196-.1068 1.65673 1.65673 0 00.5363-.3205 1.55317 1.55317 0 00.3744-.5085 1.75524 1.75524 0 00.14419-.7451v-3.6389a1.77016 1.77016 0 00-.14419-.7349 1.64324 1.64324 0 00-.3744-.5315zm-.46294 4.9053a.65408.65408 0 01-.03918.2857.65202.65202 0 01-.15814.2407.72651.72651 0 01-.46673.17.72652.72652 0 01-.46674-.17.65202.65202 0 01-.15814-.2407.65394.65394 0 01-.03918-.2857v-3.6389a.65394.65394 0 01.03918-.2857.65121.65121 0 01.15814-.2407.72652.72652 0 01.46674-.17.72651.72651 0 01.46673.17.65121.65121 0 01.15814.2407.65408.65408 0 01.03918.2857v3.6389zM16.3673 48.6994v-6.8887h-.9537l-1.2522 3.6465h-.0177l-1.2623-3.6465h-.9436v6.8887h.984v-4.1907h.0177l.9639 2.9625h.4907l.9715-2.9625h.0177v4.1907h.984zM21.958 42.2937a1.36576 1.36576 0 00-.5565-.3764 2.18417 2.18417 0 00-.7134-.1068h-1.4622v6.8888h.9815v-2.6904h.506c.3062.0139.6109-.0509.8854-.1882.2231-.1239.4092-.3057.5388-.5264.1136-.1832.1901-.3872.2252-.6001.0386-.2592.0564-.5212.0531-.7832a3.9278 3.9278 0 00-.0962-.9841 1.4654 1.4654 0 00-.3617-.6332zm-.506 2.1004a.86815.86815 0 01-.091.3586.55243.55243 0 01-.253.2415c-.1454.0651-.304.0947-.4629.0865h-.4478v-2.342h.5059a.94264.94264 0 01.4428.0864c.1014.0583.182.1473.2302.2543.0536.121.0828.2516.086.384v.4577c0 .1602.0101.3255 0 .473h-.0102zM26.6076 41.8107h-.8044l-1.5179 6.8887h.9816l.2884-1.48h1.3382l.2884 1.48h.9815l-1.5558-6.8887zm-.9056 4.4704l.4832-2.4971h.0177l.4806 2.4971h-.9815zM32.9497 45.9607h-.0177l-1.4825-4.15h-.9435v6.8887h.9815V44.557h.0202l1.5001 4.1424h.9234v-6.8887h-.9815v4.15zM38.9476 41.8107l-.7892 2.7387h-.0203l-.7892-2.7387h-1.0398l1.3484 3.9771v2.9116h.9815v-2.9116l1.3484-3.9771h-1.0398zM0 50.6445h.47306v1.3274h.32127v-1.3274h.47053v-.2721H0v.2721zM3.97672 50.3724l-.61979 1.5995h.34152l.13154-.3636h.63749l.13661.3636h.3491l-.63496-1.5995h-.34151zm-.0506.9663l.21756-.5925.21755.5925h-.43511zM7.90793 51.3821h.36934v.206a.61275.61275 0 01-.37946.1348.40368.40368 0 01-.18793-.0349.40549.40549 0 01-.15105-.1177.66879.66879 0 01-.1189-.417c0-.356.15431-.534.46041-.534a.33749.33749 0 01.2277.0598.34062.34062 0 01.13405.1944l.31622-.061c-.0683-.3128-.29345-.4704-.67797-.4704-.20566-.0055-.40564.0682-.55907.206a.78023.78023 0 00-.18269.2821.78431.78431 0 00-.04751.3332c-.00932.2189.06386.4332.20491.6002a.77612.77612 0 00.27803.1839.77318.77318 0 00.3291.05c.25027.007.49341-.0842.67797-.2543v-.6306h-.69315v.2695zM11.9226 50.3724h-.3238v1.5995h1.1207v-.2721h-.7969v-1.3274zM15.3175 50.3724h-.3238v1.5995h.3238v-1.5995zM18.6365 51.4405l-.6552-1.0681h-.3137v1.5995h.301v-1.0451l.6426 1.0451h.3213v-1.5995h-.296v1.0681zM21.6367 51.2675h.7969v-.2721h-.7969v-.3509h.8576v-.2721h-1.1814v1.5995h1.2143v-.2721h-.8905v-.4323zM28.9122 51.0031h-.6299v-.6307h-.3213v1.5995h.3213v-.6993h.6299v.6993h.3213v-1.5995h-.3213v.6307zM31.9302 51.2675h.7994v-.2721h-.7994v-.3509h.8601v-.2721h-1.1814v1.5995h1.2118v-.2721h-.8905v-.4323zM36.0233 51.2676c.2783-.0432.4199-.1907.4199-.445a.38278.38278 0 00-.0298-.1996.38098.38098 0 00-.127-.1564.90418.90418 0 00-.468-.0941h-.678v1.5995h.3213v-.6688h.0632c.0685-.0042.137.008.1999.0356.0469.029.086.0691.1138.117l.3491.5086h.3845l-.1948-.3128a1.11414 1.11414 0 00-.3541-.384zm-.3238-.2212h-.2378v-.4018h.253a.83913.83913 0 01.3263.0381.2093.2093 0 01.054.0752c.0122.0288.0177.06.0163.0913a.20987.20987 0 01-.0247.0893.20798.20798 0 01-.0608.0697.91215.91215 0 01-.3263.0382zM39.1095 51.2675h.7969v-.2721h-.7969v-.3509h.8601v-.2721h-1.1839v1.5995H40v-.2721h-.8905v-.4323z" fill="#AFB1B8"/></svg>